HIERARCHY
ROOT hip
{
  OFFSET 0 0 0
  CHANNELS 6 Xposition Yposition Zposition Zrotation Yrotation Xrotation
  JOINT abdomen
  {
    OFFSET 0 20.6881 -0.73152
    CHANNELS 3 Zrotation Xrotation Yrotation
    JOINT chest
    {
      OFFSET 0 11.7043 -0.48768
      CHANNELS 3 Zrotation Xrotation Yrotation
      JOINT neck
      {
        OFFSET 0 22.1894 -2.19456
        CHANNELS 3 Zrotation Xrotation Yrotation
        JOINT head
        {
          OFFSET -0.24384 7.07133 1.2192
          CHANNELS 3 Zrotation Xrotation Yrotation
          JOINT leftEye
          {
            OFFSET 4.14528 8.04674 8.04672
            CHANNELS 3 Zrotation Xrotation Yrotation
            End Site
            {
              OFFSET 1 0 0
            }
          }
          JOINT rightEye
          {
            OFFSET -3.6576 8.04674 8.04672
            CHANNELS 3 Zrotation Xrotation Yrotation
            End Site
            {
              OFFSET 1 0 0
            }
          }
        }
      }
      JOINT rCollar
      {
        OFFSET -2.68224 19.2634 -4.8768
        CHANNELS 3 Zrotation Xrotation Yrotation
        JOINT rShldr
        {
          OFFSET -8.77824 -1.95073 1.46304
          CHANNELS 3 Zrotation Xrotation Yrotation
          JOINT rForeArm
          {
            OFFSET -28.1742 -1.7115 0.48768
            CHANNELS 3 Zrotation Xrotation Yrotation
            JOINT rHand
            {
              OFFSET -22.5879 0.773209 7.07136
              CHANNELS 3 Zrotation Xrotation Yrotation
              JOINT rThumb1
              {
                OFFSET -1.2192 -0.487915 3.41376
                CHANNELS 3 Zrotation Xrotation Yrotation
                JOINT rThumb2
                {
                  OFFSET -3.37035 -0.52449 3.41376
                  CHANNELS 3 Zrotation Xrotation Yrotation
                  End Site
                  {
                    OFFSET -1.78271 -1.18214 1.43049
                  }
                }
              }
              JOINT rIndex1
              {
                OFFSET -7.75947 0.938293 5.60832
                CHANNELS 3 Zrotation Xrotation Yrotation
                JOINT rIndex2
                {
                  OFFSET -2.54057 -0.884171 1.56538
                  CHANNELS 3 Zrotation Xrotation Yrotation
                  End Site
                  {
                    OFFSET -1.62519 -0.234802 1.16502
                  }
                }
              }
              JOINT rMid1
              {
                OFFSET -8.24714 1.18213 3.41376
                CHANNELS 3 Zrotation Xrotation Yrotation
                JOINT rMid2
                {
                  OFFSET -3.10165 -0.590103 1.0647
                  CHANNELS 3 Zrotation Xrotation Yrotation
                  End Site
                  {
                    OFFSET -2.48547 -0.328903 0.83742
                  }
                }
              }
              JOINT rRing1
              {
                OFFSET -8.82822 0.546677 1.51678
                CHANNELS 3 Zrotation Xrotation Yrotation
                JOINT rRing2
                {
                  OFFSET -2.60934 -0.819778 -0.0198488
                  CHANNELS 3 Zrotation Xrotation Yrotation
                  End Site
                  {
                    OFFSET -2.33842 -0.294052 0.168128
                  }
                }
              }
              JOINT rPinky1
              {
                OFFSET -8.27202 -0.0477905 -0.4584
                CHANNELS 3 Zrotation Xrotation Yrotation
                JOINT rPinky2
                {
                  OFFSET -1.82734 -0.647385 -0.700984
                  CHANNELS 3 Zrotation Xrotation Yrotation
                  End Site
                  {
                    OFFSET -1.69225 -0.51767 -0.607171
                  }
                }
              }
            }
          }
        }
      }
      JOINT lCollar
      {
        OFFSET 2.68224 19.2634 -4.8768
        CHANNELS 3 Zrotation Xrotation Yrotation
        JOINT lShldr
        {
          OFFSET 8.77824 -1.95073 1.46304
          CHANNELS 3 Zrotation Xrotation Yrotation
          JOINT lForeArm
          {
            OFFSET 28.1742 -1.7115 0.48768
            CHANNELS 3 Zrotation Xrotation Yrotation
            JOINT lHand
            {
              OFFSET 22.5879 0.773209 7.07136
              CHANNELS 3 Zrotation Xrotation Yrotation
              JOINT lThumb1
              {
                OFFSET 1.2192 -0.487915 3.41376
                CHANNELS 3 Zrotation Xrotation Yrotation
                JOINT lThumb2
                {
                  OFFSET 3.37035 -0.52449 3.41376
                  CHANNELS 3 Zrotation Xrotation Yrotation
                  End Site
                  {
                    OFFSET 1.78271 -1.18214 1.43049
                  }
                }
              }
              JOINT lIndex1
              {
                OFFSET 7.75947 0.938293 5.60832
                CHANNELS 3 Zrotation Xrotation Yrotation
                JOINT lIndex2
                {
                  OFFSET 2.54057 -0.884171 1.56538
                  CHANNELS 3 Zrotation Xrotation Yrotation
                  End Site
                  {
                    OFFSET 1.62519 -0.234802 1.16502
                  }
                }
              }
              JOINT lMid1
              {
                OFFSET 8.24714 1.18213 3.41376
                CHANNELS 3 Zrotation Xrotation Yrotation
                JOINT lMid2
                {
                  OFFSET 3.10165 -0.590103 1.0647
                  CHANNELS 3 Zrotation Xrotation Yrotation
                  End Site
                  {
                    OFFSET 2.48547 -0.328903 0.83742
                  }
                }
              }
              JOINT lRing1
              {
                OFFSET 8.82822 0.546677 1.51678
                CHANNELS 3 Zrotation Xrotation Yrotation
                JOINT lRing2
                {
                  OFFSET 2.60934 -0.819778 -0.0198488
                  CHANNELS 3 Zrotation Xrotation Yrotation
                  End Site
                  {
                    OFFSET 2.33842 -0.294052 0.168128
                  }
                }
              }
              JOINT lPinky1
              {
                OFFSET 8.27202 -0.0477905 -0.4584
                CHANNELS 3 Zrotation Xrotation Yrotation
                JOINT lPinky2
                {
                  OFFSET 1.82734 -0.647385 -0.700984
                  CHANNELS 3 Zrotation Xrotation Yrotation
                  End Site
                  {
                    OFFSET 1.69225 -0.51767 -0.607171
                  }
                }
              }
            }
          }
        }
      }
    }
  }
  JOINT rButtock
  {
    OFFSET -8.77824 4.35084 1.2192
    CHANNELS 3 Zrotation Xrotation Yrotation
    JOINT rThigh
    {
      OFFSET 0 -1.70687 -2.19456
      CHANNELS 3 Zrotation Xrotation Yrotation
      JOINT rShin
      {
        OFFSET 0 -36.8199 0.73152
        CHANNELS 3 Zrotation Xrotation Yrotation
        JOINT rFoot
        {
          OFFSET 0.73152 -45.1104 -5.12064
          CHANNELS 3 Zrotation Xrotation Yrotation
          End Site
          {
            OFFSET -1.1221 -3.69964 12.103
          }
        }
      }
    }
  }
  JOINT lButtock
  {
    OFFSET 8.77824 4.35084 1.2192
    CHANNELS 3 Zrotation Xrotation Yrotation
    JOINT lThigh
    {
      OFFSET 0 -1.70687 -2.19456
      CHANNELS 3 Zrotation Xrotation Yrotation
      JOINT lShin
      {
        OFFSET 0 -36.8199 0.73152
        CHANNELS 3 Zrotation Xrotation Yrotation
        JOINT lFoot
        {
          OFFSET -0.73152 -45.1104 -5.12064
          CHANNELS 3 Zrotation Xrotation Yrotation
          End Site
          {
            OFFSET 1.1221 -3.69964 12.103
          }
        }
      }
    }
  }
}
MOTION
Frames:	6
Frame Time:	0.03333
-0.07869999972172081 76.81919932365417 2.6156000792980194 -54.66210174560547 61.2649040222168 -55.80060577392578 -9.587539672851562 25.67850112915039 -1.9234133958816528 11.305401802062988 -9.241815567016602 -0.24326717853546143 -10.238801002502441 18.318885803222656 -13.334003448486328 27.796703338623047 -18.015295028686523 -22.01949691772461 -0.0 0.0 -0.0 -0.0 0.0 -0.0 -0.0 0.0 -0.0 28.211990356445312 2.1259713172912598 16.882272720336914 -27.931203842163086 -40.806392669677734 85.36940002441406 -0.3884125053882599 -16.994895935058594 -2.465441942214966 -0.0 -0.0 -0.0 -0.0 -0.0 -0.0 -0.0 -0.0 -0.0 7.730902194976807 5.47491455078125 0.4173222780227661 -0.0 -0.0 -0.0 2.905566453933716 0.9650754332542419 0.10300818830728531 -0.0 -0.0 -0.0 10.278596878051758 0.7318810820579529 0.026273518800735474 -0.0 -0.0 -0.0 2.221662998199463 -0.7334509491920471 -0.20832103490829468 -0.0 0.0 -0.0 -32.284698486328125 29.106000900268555 -3.8082191944122314 28.050500869750977 -40.10379409790039 -84.13420104980469 0.3043549358844757 -15.145224571228027 2.1829562187194824 0.0 0.0 0.0 0.0 0.0 0.0 0.0 0.0 0.0 -7.730902194976807 5.47491455078125 -0.4173222780227661 0.0 0.0 0.0 -2.905566453933716 0.9650754332542419 -0.10300818830728531 0.0 0.0 0.0 -10.278596878051758 0.7318810820579529 -0.026273518800735474 0.0 0.0 0.0 -2.221662998199463 -0.7334509491920471 0.20832103490829468 -0.0 0.0 -0.0 -41.27260971069336 -60.3126106262207 -34.55570602416992 -176.3506622314453 66.36590576171875 177.08554077148438 0.8541004657745361 1.2696332931518555 5.368947982788086 0.0 0.0 0.0 9.574146270751953 -26.357601165771484 -4.708104610443115 0.5955278873443604 53.275390625 -1.5892207622528076 4.466864585876465 -12.581599235534668 16.083202362060547
-0.2986999985296279 78.49670052528381 5.409500002861023 -61.34009552001953 59.83428955078125 -62.46799850463867 -8.754120826721191 26.703100204467773 -2.7314538955688477 11.73488998413086 -9.439035415649414 -0.39811375737190247 -9.833291053771973 18.374692916870117 -13.447500228881836 28.495397567749023 -17.157804489135742 -22.323204040527344 -0.0 0.0 -0.0 -0.0 0.0 -0.0 -0.0 0.0 -0.0 28.389888763427734 2.074705123901367 13.500777244567871 -28.322797775268555 -38.16939926147461 80.67609405517578 -0.3597186207771301 -16.482816696166992 -2.385615110397339 -0.0 -0.0 -0.0 -0.0 -0.0 -0.0 -0.0 -0.0 -0.0 7.730902194976807 5.47491455078125 0.4173222780227661 -0.0 -0.0 -0.0 2.905566453933716 0.9650754332542419 0.10300818830728531 -0.0 -0.0 -0.0 10.278596878051758 0.7318810820579529 0.026273518800735474 -0.0 -0.0 -0.0 2.221662998199463 -0.7334509491920471 -0.20832103490829468 -0.0 0.0 -0.0 -26.761396408081055 26.65530014038086 -7.801564693450928 28.18279457092285 -39.39120864868164 -82.7874984741211 0.1361216902732849 -11.49000358581543 1.6324102878570557 0.0 0.0 0.0 0.0 0.0 0.0 0.0 0.0 0.0 -7.730902194976807 5.47491455078125 -0.4173222780227661 0.0 0.0 0.0 -2.905566453933716 0.9650754332542419 -0.10300818830728531 0.0 0.0 0.0 -10.278596878051758 0.7318810820579529 -0.026273518800735474 0.0 0.0 0.0 -2.221662998199463 -0.7334509491920471 0.20832103490829468 -0.0 0.0 -0.0 -57.27268600463867 -59.84280014038086 -44.746673583984375 -176.75392150878906 62.0149040222168 177.6168975830078 1.5528522729873657 -0.5814593434333801 6.69970703125 0.0 0.0 0.0 14.564399719238281 -24.43730926513672 -4.4436421394348145 0.4862540066242218 50.94830322265625 -1.5839152336120605 3.7627131938934326 -11.824089050292969 15.610702514648438
-0.47859999467618763 80.54230213165283 8.033300004899502 -69.835205078125 56.427391052246094 -69.84659576416016 -5.298678398132324 27.082902908325195 -3.624833583831787 11.571678161621094 -9.707377433776855 -0.4209795296192169 -9.349538803100586 18.533489227294922 -13.93281078338623 29.176206588745117 -16.469284057617188 -23.34040069580078 -0.0 0.0 -0.0 -0.0 0.0 -0.0 -0.0 0.0 0.0 28.74146842956543 2.1970736980438232 8.616524696350098 -28.43280029296875 -35.381690979003906 76.037109375 -0.3735833466053009 -16.79842185974121 -2.4339990615844727 -0.0 0.0 -0.0 -0.0 0.0 -0.0 -0.0 0.0 -0.0 7.730902194976807 5.47491455078125 0.4173222780227661 -0.0 0.0 -0.0 2.905566453933716 0.9650754332542419 0.10300818830728531 -0.0 0.0 -0.0 10.278596878051758 0.7318810820579529 0.026273518800735474 -0.0 0.0 -0.0 2.221662998199463 -0.7334509491920471 -0.20832103490829468 -0.0 0.0 0.0 -21.041505813598633 24.650094985961914 -13.639403343200684 28.317903518676758 -38.275001525878906 -80.83419799804688 0.0009946199133992195 -4.542000770568848 0.6365071535110474 0.0 0.0 -0.0 0.0 0.0 -0.0 0.0 0.0 -0.0 -7.730902194976807 5.47491455078125 -0.4173222780227661 0.0 0.0 -0.0 -2.905566453933716 0.9650754332542419 -0.10300818830728531 0.0 0.0 -0.0 -10.278596878051758 0.7318810820579529 -0.026273518800735474 0.0 0.0 -0.0 -2.221662998199463 -0.7334509491920471 0.20832103490829468 -0.0 0.0 -0.0 -72.05400085449219 -57.3578987121582 -54.974491119384766 -176.95053100585938 59.81303405761719 177.95790100097656 2.1205623149871826 -2.2315871715545654 6.952733516693115 0.0 0.0 0.0 22.1260986328125 -24.994890213012695 -2.9372506141662598 0.44476327300071716 49.844696044921875 -1.6118676662445068 2.274651050567627 -10.324299812316895 12.688611030578613
-0.5152999947313219 82.79849886894226 10.555399954319 -78.17060089111328 52.73580551147461 -76.73080444335938 -0.4160222113132477 27.587299346923828 -5.308307647705078 11.400585174560547 -9.982625961303711 -0.5277907848358154 -9.180285453796387 18.447599411010742 -14.258304595947266 30.020097732543945 -16.35969352722168 -23.903400421142578 -0.0 0.0 -0.0 -0.0 0.0 -0.0 0.0 0.0 0.0 28.99810028076172 3.0664193630218506 4.227214336395264 -28.269500732421875 -32.49970245361328 71.15789794921875 -0.31006354093551636 -15.997052192687988 -2.306871175765991 -0.0 0.0 -0.0 -0.0 0.0 -0.0 -0.0 0.0 -0.0 7.730902194976807 5.47491455078125 0.4173222780227661 -0.0 0.0 -0.0 2.905566453933716 0.9650754332542419 0.10300818830728531 -0.0 0.0 -0.0 10.278596878051758 0.7318810820579529 0.026273518800735474 -0.0 0.0 -0.0 2.221662998199463 -0.7334509491920471 -0.20832103490829468 0.0 0.0 0.0 -16.410703659057617 22.487993240356445 -19.452695846557617 28.36520004272461 -37.51050567626953 -79.59039306640625 0.01935974322259426 -2.0866641998291016 0.2948198616504669 -0.0 0.0 -0.0 -0.0 0.0 -0.0 -0.0 0.0 -0.0 -7.730902194976807 5.47491455078125 -0.4173222780227661 -0.0 0.0 -0.0 -2.905566453933716 0.9650754332542419 -0.10300818830728531 -0.0 0.0 -0.0 -10.278596878051758 0.7318810820579529 -0.026273518800735474 -0.0 0.0 -0.0 -2.221662998199463 -0.7334509491920471 0.20832103490829468 -0.0 0.0 -0.0 -77.8197021484375 -53.62310028076172 -57.65630340576172 -176.7979278564453 62.1345100402832 178.070556640625 1.8078458309173584 -3.5476315021514893 4.270474910736084 0.0 0.0 0.0 30.45499610900879 -27.071508407592773 0.44512560963630676 0.4291054904460907 49.39200210571289 -1.6488125324249268 0.7336612343788147 -7.477841854095459 9.651647567749023
-0.25599999935366213 85.11430025100708 12.91549988090992 -85.79388427734375 48.08599853515625 -82.64530181884766 5.931585788726807 28.184404373168945 -7.798661708831787 11.220406532287598 -10.264704704284668 -0.7189415693283081 -9.32935905456543 18.118497848510742 -14.423110008239746 31.008197784423828 -16.82619857788086 -24.016597747802734 -0.0 0.0 -0.0 -0.0 0.0 -0.0 0.0 0.0 0.0 29.311899185180664 4.688351154327393 0.3267112672328949 -27.757396697998047 -29.245195388793945 65.9983901977539 -0.24933597445487976 -14.076656341552734 -2.0193030834198 -0.0 0.0 -0.0 -0.0 0.0 -0.0 -0.0 0.0 -0.0 7.730902194976807 5.47491455078125 0.4173222780227661 -0.0 0.0 -0.0 2.905566453933716 0.9650754332542419 0.10300818830728531 -0.0 0.0 -0.0 10.278596878051758 0.7318810820579529 0.026273518800735474 -0.0 0.0 -0.0 2.221662998199463 -0.7334509491920471 -0.20832103490829468 0.0 0.0 0.0 -12.874004364013672 20.208805084228516 -25.256696701049805 28.391708374023438 -37.149898529052734 -78.9563980102539 0.020970499143004417 -4.127532482147217 0.5819414258003235 -0.0 -0.0 -0.0 -0.0 -0.0 -0.0 -0.0 -0.0 -0.0 -7.730902194976807 5.47491455078125 -0.4173222780227661 -0.0 -0.0 -0.0 -2.905566453933716 0.9650754332542419 -0.10300818830728531 -0.0 -0.0 -0.0 -10.278596878051758 0.7318810820579529 -0.026273518800735474 -0.0 -0.0 -0.0 -2.221662998199463 -0.7334509491920471 0.20832103490829468 -0.0 0.0 -0.0 -76.31729888916016 -49.22249221801758 -54.871002197265625 -176.25799560546875 68.97958374023438 177.88499450683594 0.46136394143104553 -4.5122456550598145 -1.3605462312698364 0.0 0.0 0.0 40.09140396118164 -30.511898040771484 5.957472801208496 0.44258353114128113 49.5900993347168 -1.6963688135147095 -0.6351277232170105 -3.263322114944458 6.5486369132995605
0.30399998067878187 87.4796986579895 14.725199900567532 -92.0730972290039 42.39390182495117 -87.17121124267578 12.115306854248047 28.285600662231445 -9.772671699523926 11.062198638916016 -10.49591064453125 -0.7548505067825317 -9.289328575134277 17.974401473999023 -14.589595794677734 31.801105499267578 -16.88519287109375 -24.236589431762695 -0.0 0.0 -0.0 -0.0 0.0 -0.0 0.0 0.0 0.0 30.433706283569336 6.667954921722412 -3.7172560691833496 -26.918306350708008 -26.101194381713867 60.995601654052734 -0.2010975480079651 -12.672006607055664 -1.8109352588653564 -0.0 0.0 -0.0 -0.0 0.0 -0.0 -0.0 0.0 -0.0 7.730902194976807 5.47491455078125 0.4173222780227661 -0.0 0.0 -0.0 2.905566453933716 0.9650754332542419 0.10300818830728531 -0.0 0.0 -0.0 10.278596878051758 0.7318810820579529 0.026273518800735474 -0.0 0.0 -0.0 2.221662998199463 -0.7334509491920471 -0.20832103490829468 0.0 0.0 0.0 -10.107890129089355 18.621997833251953 -31.65570068359375 28.396902084350586 -36.97969436645508 -78.68560028076172 0.05132932588458061 -7.280842304229736 1.0270605087280273 -0.0 -0.0 -0.0 -0.0 -0.0 -0.0 -0.0 -0.0 -0.0 -7.730902194976807 5.47491455078125 -0.4173222780227661 -0.0 -0.0 -0.0 -2.905566453933716 0.9650754332542419 -0.10300818830728531 -0.0 -0.0 -0.0 -10.278596878051758 0.7318810820579529 -0.026273518800735474 -0.0 -0.0 -0.0 -2.221662998199463 -0.7334509491920471 0.20832103490829468 -0.0 0.0 -0.0 -69.60800170898438 -44.295902252197266 -48.22509765625 -172.7659912109375 81.39850616455078 174.53196716308594 -0.8447301983833313 -6.024172782897949 -6.455574035644531 0.0 0.0 0.0 48.66529846191406 -32.79739761352539 12.600295066833496 0.3909330666065216 47.4540901184082 -1.543478012084961 -0.9883105158805847 0.02891671471297741 7.169704437255859
